<svg width="1280" height="640" viewBox="0 0 1280 640" fill="none" xmlns="http://www.w3.org/2000/svg">
<g filter="url(#filter0_d)">
<path d="M275.84 295.416C275.84 293.112 276.32 290.904 277.28 288.792C278.304 286.68 279.712 284.856 281.504 283.32C283.36 281.72 285.568 280.44 288.128 279.48C290.752 278.52 293.696 278.04 296.96 278.04C299.968 278.04 302.688 278.52 305.12 279.48C307.616 280.44 309.76 281.784 311.552 283.512C313.344 285.24 314.72 287.288 315.68 289.656C316.64 291.96 317.12 294.488 317.12 297.24H306.08C306.08 294.552 305.28 292.44 303.68 290.904C302.08 289.368 299.84 288.6 296.96 288.6C294.08 288.6 291.84 289.304 290.24 290.712C288.64 292.12 287.84 293.656 287.84 295.32C287.84 297.112 288.608 298.488 290.144 299.448C291.68 300.408 293.6 301.272 295.904 302.04C298.208 302.808 300.704 303.608 303.392 304.44C306.144 305.272 308.672 306.392 310.976 307.8C313.28 309.208 315.2 311.064 316.736 313.368C318.272 315.608 319.04 318.552 319.04 322.2C319.04 324.376 318.496 326.488 317.408 328.536C316.384 330.584 314.912 332.44 312.992 334.104C311.072 335.704 308.736 337.016 305.984 338.04C303.296 339 300.288 339.48 296.96 339.48C293.568 339.48 290.528 339 287.84 338.04C285.216 337.08 282.976 335.736 281.12 334.008C279.264 332.216 277.824 330.136 276.8 327.768C275.84 325.336 275.36 322.68 275.36 319.8H286.88C286.88 322.488 287.776 324.696 289.568 326.424C291.36 328.088 293.824 328.92 296.96 328.92C300.352 328.92 302.88 328.216 304.544 326.808C306.208 325.336 307.04 323.64 307.04 321.72C307.04 319.864 306.272 318.424 304.736 317.4C303.2 316.376 301.28 315.48 298.976 314.712C296.672 313.88 294.144 313.08 291.392 312.312C288.704 311.544 286.208 310.488 283.904 309.144C281.6 307.8 279.68 306.072 278.144 303.96C276.608 301.784 275.84 298.936 275.84 295.416ZM349.715 294.36C352.467 294.36 355.091 294.936 357.587 296.088C360.083 297.176 362.259 298.744 364.115 300.792C366.035 302.776 367.539 305.144 368.627 307.896C369.779 310.648 370.355 313.656 370.355 316.92C370.355 320.184 369.779 323.192 368.627 325.944C367.539 328.696 366.035 331.096 364.115 333.144C362.259 335.128 360.083 336.696 357.587 337.848C355.091 338.936 352.467 339.48 349.715 339.48C347.859 339.48 346.227 339.256 344.819 338.808C343.475 338.36 342.291 337.88 341.267 337.368C340.115 336.728 339.091 335.992 338.195 335.16V354.36H327.155V294.84H335.315L337.235 299.16C338.195 298.264 339.315 297.464 340.595 296.76C341.683 296.184 342.995 295.64 344.531 295.128C346.067 294.616 347.795 294.36 349.715 294.36ZM337.235 316.92C337.235 320.568 338.291 323.48 340.403 325.656C342.515 327.832 345.139 328.92 348.275 328.92C351.411 328.92 354.035 327.832 356.147 325.656C358.259 323.48 359.315 320.568 359.315 316.92C359.315 313.272 358.259 310.36 356.147 308.184C354.035 306.008 351.411 304.92 348.275 304.92C345.139 304.92 342.515 306.008 340.403 308.184C338.291 310.36 337.235 313.272 337.235 316.92ZM387.17 316.92C387.17 320.568 388.226 323.48 390.338 325.656C392.45 327.832 395.074 328.92 398.21 328.92C401.346 328.92 403.97 327.832 406.082 325.656C408.194 323.48 409.25 320.568 409.25 316.92C409.25 313.272 408.194 310.36 406.082 308.184C403.97 306.008 401.346 304.92 398.21 304.92C395.074 304.92 392.45 306.008 390.338 308.184C388.226 310.36 387.17 313.272 387.17 316.92ZM420.29 316.92C420.29 320.056 419.682 323 418.466 325.752C417.314 328.44 415.714 330.808 413.666 332.856C411.682 334.904 409.346 336.536 406.658 337.752C404.034 338.904 401.218 339.48 398.21 339.48C395.202 339.48 392.354 338.904 389.666 337.752C387.042 336.536 384.706 334.904 382.658 332.856C380.674 330.808 379.074 328.44 377.858 325.752C376.706 323 376.13 320.056 376.13 316.92C376.13 313.784 376.706 310.872 377.858 308.184C379.074 305.432 380.674 303.032 382.658 300.984C384.706 298.936 387.042 297.336 389.666 296.184C392.354 294.968 395.202 294.36 398.21 294.36C401.218 294.36 404.034 294.968 406.658 296.184C409.346 297.336 411.682 298.936 413.666 300.984C415.714 303.032 417.314 305.432 418.466 308.184C419.682 310.872 420.29 313.784 420.29 316.92ZM433.205 284.28H442.805V294.84H452.405V304.92H442.805V323.16C442.805 325.08 443.349 326.616 444.437 327.768C445.589 328.856 447.125 329.4 449.045 329.4C449.557 329.4 449.973 329.4 450.293 329.4C450.613 329.336 450.901 329.272 451.157 329.208C451.413 329.144 451.669 329.048 451.925 328.92V338.52C451.477 338.712 450.965 338.872 450.389 339C449.301 339.32 448.053 339.48 446.645 339.48C444.469 339.48 442.453 339.128 440.597 338.424C438.805 337.656 437.237 336.568 435.893 335.16C434.613 333.752 433.589 332.088 432.821 330.168C432.117 328.248 431.765 326.072 431.765 323.64V304.92H425.045V295.8H427.925C431.445 295.8 433.205 294.04 433.205 290.52V284.28ZM472.539 339H461.499V294.84H472.539V339ZM467.259 289.08C465.595 289.08 464.123 288.472 462.843 287.256C461.627 285.976 461.019 284.504 461.019 282.84C461.019 281.176 461.627 279.736 462.843 278.52C464.123 277.24 465.595 276.6 467.259 276.6C468.923 276.6 470.363 277.24 471.579 278.52C472.859 279.736 473.499 281.176 473.499 282.84C473.499 284.504 472.859 285.976 471.579 287.256C470.363 288.472 468.923 289.08 467.259 289.08ZM484.981 305.88H479.701V295.8H484.981V293.88C484.981 291.512 485.333 289.368 486.037 287.448C486.805 285.464 487.829 283.768 489.109 282.36C490.453 280.952 492.021 279.896 493.813 279.192C495.669 278.424 497.685 278.04 499.861 278.04C500.565 278.04 501.237 278.104 501.877 278.232C502.517 278.296 503.093 278.392 503.605 278.52C504.181 278.712 504.693 278.872 505.141 279V288.6C504.885 288.536 504.629 288.472 504.373 288.408C504.117 288.344 503.829 288.28 503.509 288.216C503.189 288.152 502.773 288.12 502.261 288.12C500.341 288.12 498.805 288.696 497.653 289.848C496.565 290.936 496.021 292.44 496.021 294.36V295.8H505.141V305.88H496.021V339H484.981V305.88ZM507.511 294.84H519.031L530.071 323.64L540.151 294.84H551.671C548.535 302.904 545.687 310.2 543.127 316.728C542.039 319.544 540.951 322.296 539.863 324.984C538.839 327.672 537.911 330.136 537.079 332.376C536.247 334.552 535.543 336.376 534.967 337.848C534.391 339.32 534.039 340.184 533.911 340.44C532.823 343.064 531.735 345.272 530.647 347.064C529.623 348.92 528.503 350.424 527.287 351.576C526.071 352.728 524.759 353.56 523.351 354.072C521.943 354.584 520.343 354.84 518.551 354.84C518.039 354.84 517.527 354.808 517.015 354.744C516.567 354.744 516.183 354.712 515.863 354.648C515.415 354.584 515.031 354.488 514.711 354.36V345.24C517.143 345.24 518.999 344.696 520.279 343.608C521.623 342.52 522.647 341.144 523.351 339.48L524.311 337.08L507.511 294.84Z" fill="#1DB954"/>
<path d="M553.565 278.52H600.605V289.56H582.845V339H571.325V289.56H553.565V278.52ZM613.014 316.92C613.014 320.568 614.07 323.48 616.182 325.656C618.294 327.832 620.918 328.92 624.054 328.92C627.19 328.92 629.814 327.832 631.926 325.656C634.038 323.48 635.094 320.568 635.094 316.92C635.094 313.272 634.038 310.36 631.926 308.184C629.814 306.008 627.19 304.92 624.054 304.92C620.918 304.92 618.294 306.008 616.182 308.184C614.07 310.36 613.014 313.272 613.014 316.92ZM646.134 316.92C646.134 320.056 645.526 323 644.31 325.752C643.158 328.44 641.558 330.808 639.51 332.856C637.526 334.904 635.19 336.536 632.502 337.752C629.878 338.904 627.062 339.48 624.054 339.48C621.046 339.48 618.198 338.904 615.51 337.752C612.886 336.536 610.55 334.904 608.502 332.856C606.518 330.808 604.918 328.44 603.702 325.752C602.55 323 601.974 320.056 601.974 316.92C601.974 313.784 602.55 310.872 603.702 308.184C604.918 305.432 606.518 303.032 608.502 300.984C610.55 298.936 612.886 297.336 615.51 296.184C618.198 294.968 621.046 294.36 624.054 294.36C627.062 294.36 629.878 294.968 632.502 296.184C635.19 297.336 637.526 298.936 639.51 300.984C641.558 303.032 643.158 305.432 644.31 308.184C645.526 310.872 646.134 313.784 646.134 316.92ZM760.34 295.416C760.34 293.112 760.82 290.904 761.78 288.792C762.804 286.68 764.212 284.856 766.004 283.32C767.86 281.72 770.068 280.44 772.628 279.48C775.252 278.52 778.196 278.04 781.46 278.04C784.468 278.04 787.188 278.52 789.62 279.48C792.116 280.44 794.26 281.784 796.052 283.512C797.844 285.24 799.22 287.288 800.18 289.656C801.14 291.96 801.62 294.488 801.62 297.24H790.58C790.58 294.552 789.78 292.44 788.18 290.904C786.58 289.368 784.34 288.6 781.46 288.6C778.58 288.6 776.34 289.304 774.74 290.712C773.14 292.12 772.34 293.656 772.34 295.32C772.34 297.112 773.108 298.488 774.644 299.448C776.18 300.408 778.1 301.272 780.404 302.04C782.708 302.808 785.204 303.608 787.892 304.44C790.644 305.272 793.172 306.392 795.476 307.8C797.78 309.208 799.7 311.064 801.236 313.368C802.772 315.608 803.54 318.552 803.54 322.2C803.54 324.376 802.996 326.488 801.908 328.536C800.884 330.584 799.412 332.44 797.492 334.104C795.572 335.704 793.236 337.016 790.484 338.04C787.796 339 784.788 339.48 781.46 339.48C778.068 339.48 775.028 339 772.34 338.04C769.716 337.08 767.476 335.736 765.62 334.008C763.764 332.216 762.324 330.136 761.3 327.768C760.34 325.336 759.86 322.68 759.86 319.8H771.38C771.38 322.488 772.276 324.696 774.068 326.424C775.86 328.088 778.324 328.92 781.46 328.92C784.852 328.92 787.38 328.216 789.044 326.808C790.708 325.336 791.54 323.64 791.54 321.72C791.54 319.864 790.772 318.424 789.236 317.4C787.7 316.376 785.78 315.48 783.476 314.712C781.172 313.88 778.644 313.08 775.892 312.312C773.204 311.544 770.708 310.488 768.404 309.144C766.1 307.8 764.18 306.072 762.644 303.96C761.108 301.784 760.34 298.936 760.34 295.416ZM816.455 284.28H826.055V294.84H835.655V304.92H826.055V323.16C826.055 325.08 826.599 326.616 827.687 327.768C828.839 328.856 830.375 329.4 832.295 329.4C832.807 329.4 833.223 329.4 833.543 329.4C833.863 329.336 834.151 329.272 834.407 329.208C834.663 329.144 834.919 329.048 835.175 328.92V338.52C834.727 338.712 834.215 338.872 833.639 339C832.551 339.32 831.303 339.48 829.895 339.48C827.719 339.48 825.703 339.128 823.847 338.424C822.055 337.656 820.487 336.568 819.143 335.16C817.863 333.752 816.839 332.088 816.071 330.168C815.367 328.248 815.015 326.072 815.015 323.64V304.92H808.295V295.8H811.175C814.695 295.8 816.455 294.04 816.455 290.52V284.28ZM862.051 294.36C864.547 294.36 866.851 294.808 868.963 295.704C871.075 296.536 872.899 297.72 874.435 299.256C875.971 300.792 877.155 302.616 877.987 304.728C878.883 306.84 879.331 309.144 879.331 311.64V339H871.171L869.251 334.68C868.227 335.576 867.107 336.376 865.891 337.08C864.803 337.72 863.491 338.296 861.955 338.808C860.419 339.256 858.691 339.48 856.771 339.48C851.971 339.48 848.291 338.328 845.731 336.024C843.171 333.656 841.891 330.648 841.891 327C841.891 324.824 842.307 322.84 843.139 321.048C844.035 319.192 845.507 317.624 847.555 316.344C849.603 315 852.291 313.976 855.619 313.272C859.011 312.504 863.235 312.12 868.291 312.12C868.291 309.688 867.619 307.8 866.275 306.456C864.995 305.112 863.267 304.44 861.091 304.44C859.619 304.44 858.435 304.696 857.539 305.208C856.707 305.72 856.035 306.264 855.523 306.84C854.947 307.544 854.563 308.344 854.371 309.24H843.331C843.587 307.192 844.163 305.272 845.059 303.48C846.019 301.688 847.299 300.12 848.899 298.776C850.499 297.432 852.387 296.376 854.563 295.608C856.803 294.776 859.299 294.36 862.051 294.36ZM858.691 330.84C861.571 330.84 863.875 330.008 865.603 328.344C867.395 326.616 868.291 324.408 868.291 321.72V319.8C865.027 319.8 862.403 319.96 860.419 320.28C858.435 320.536 856.867 320.952 855.715 321.528C854.627 322.04 853.891 322.68 853.507 323.448C853.123 324.216 852.931 325.08 852.931 326.04C852.931 327.256 853.475 328.376 854.563 329.4C855.651 330.36 857.027 330.84 858.691 330.84ZM893.236 284.28H902.836V294.84H912.436V304.92H902.836V323.16C902.836 325.08 903.38 326.616 904.468 327.768C905.62 328.856 907.156 329.4 909.076 329.4C909.588 329.4 910.004 329.4 910.324 329.4C910.644 329.336 910.932 329.272 911.188 329.208C911.444 329.144 911.7 329.048 911.956 328.92V338.52C911.508 338.712 910.996 338.872 910.42 339C909.332 339.32 908.084 339.48 906.676 339.48C904.5 339.48 902.484 339.128 900.628 338.424C898.836 337.656 897.268 336.568 895.924 335.16C894.644 333.752 893.62 332.088 892.852 330.168C892.148 328.248 891.796 326.072 891.796 323.64V304.92H885.076V295.8H887.956C891.476 295.8 893.236 294.04 893.236 290.52V284.28ZM938.821 339.48C936.197 339.48 933.797 339.064 931.621 338.232C929.445 337.336 927.557 336.088 925.957 334.488C924.421 332.824 923.205 330.84 922.309 328.536C921.477 326.232 921.061 323.64 921.061 320.76V294.84H932.101V319.32C932.101 322.2 932.933 324.536 934.597 326.328C936.325 328.056 938.533 328.92 941.221 328.92C943.909 328.92 946.085 328.056 947.749 326.328C949.477 324.536 950.341 322.2 950.341 319.32V294.84H961.381V339H953.221L951.301 334.68C950.213 335.576 949.029 336.376 947.749 337.08C946.661 337.72 945.349 338.296 943.813 338.808C942.277 339.256 940.613 339.48 938.821 339.48ZM980.128 325.08C980.384 326.552 981.088 327.8 982.24 328.824C983.392 329.848 984.928 330.36 986.848 330.36C988.768 330.36 990.272 329.88 991.359 328.92C992.512 327.896 993.088 326.776 993.088 325.56C993.088 324.536 992.512 323.736 991.359 323.16C990.272 322.584 988.896 322.072 987.232 321.624C985.568 321.112 983.744 320.6 981.76 320.088C979.84 319.576 978.048 318.84 976.384 317.88C974.72 316.856 973.312 315.576 972.16 314.04C971.072 312.44 970.528 310.36 970.528 307.8C970.528 306.008 970.88 304.312 971.584 302.712C972.352 301.048 973.44 299.608 974.848 298.392C976.256 297.176 977.92 296.216 979.84 295.512C981.76 294.744 983.936 294.36 986.368 294.36C991.68 294.36 995.744 295.64 998.56 298.2C1001.44 300.76 1003.14 303.96 1003.65 307.8H993.088C992.832 306.84 992.128 305.88 990.976 304.92C989.888 303.96 988.512 303.48 986.848 303.48C985.184 303.48 983.872 303.896 982.912 304.728C982.016 305.56 981.568 306.584 981.568 307.8C981.568 308.824 982.112 309.624 983.2 310.2C984.352 310.776 985.76 311.32 987.424 311.832C989.088 312.28 990.88 312.792 992.8 313.368C994.784 313.88 996.608 314.648 998.272 315.672C999.936 316.696 1001.31 318.04 1002.4 319.704C1003.55 321.304 1004.13 323.416 1004.13 326.04C1004.13 327.832 1003.74 329.56 1002.98 331.224C1002.21 332.824 1001.12 334.232 999.712 335.448C998.304 336.664 996.576 337.656 994.528 338.424C992.544 339.128 990.304 339.48 987.808 339.48C982.048 339.48 977.664 338.168 974.656 335.544C971.712 332.92 970.016 329.432 969.568 325.08H980.128Z" fill="black"/>
<path d="M671.049 339L649.449 278.52H661.449L676.809 322.68L692.169 278.52H704.169L682.569 339H671.049ZM744.016 339L722.416 311.64V339H710.896V278.52H722.416V305.4L742.576 278.52H756.016L733.456 308.28L757.456 339H744.016Z" fill="#4680C2"/>
</g>
<defs>
<filter id="filter0_d" x="265.36" y="271.6" width="748.768" height="98.24" filterUnits="userSpaceOnUse" color-interpolation-filters="sRGB">
<feFlood flood-opacity="0" result="BackgroundImageFix"/>
<feColorMatrix in="SourceAlpha" type="matrix" values="0 0 0 0 0 0 0 0 0 0 0 0 0 0 0 0 0 0 127 0"/>
<feOffset dy="5"/>
<feGaussianBlur stdDeviation="5"/>
<feColorMatrix type="matrix" values="0 0 0 0 0 0 0 0 0 0 0 0 0 0 0 0 0 0 0.1 0"/>
<feBlend mode="normal" in2="BackgroundImageFix" result="effect1_dropShadow"/>
<feBlend mode="normal" in="SourceGraphic" in2="effect1_dropShadow" result="shape"/>
</filter>
</defs>
</svg>
