<svg width="1280" height="420" viewBox="0 0 1280 420" fill="none" xmlns="http://www.w3.org/2000/svg">
<path d="M274.84 185.416C274.84 183.112 275.32 180.904 276.28 178.792C277.304 176.68 278.712 174.856 280.504 173.32C282.36 171.72 284.568 170.44 287.128 169.48C289.752 168.52 292.696 168.04 295.96 168.04C298.968 168.04 301.688 168.52 304.12 169.48C306.616 170.44 308.76 171.784 310.552 173.512C312.344 175.24 313.72 177.288 314.68 179.656C315.64 181.96 316.12 184.488 316.12 187.24H305.08C305.08 184.552 304.28 182.44 302.68 180.904C301.08 179.368 298.84 178.6 295.96 178.6C293.08 178.6 290.84 179.304 289.24 180.712C287.64 182.12 286.84 183.656 286.84 185.32C286.84 187.112 287.608 188.488 289.144 189.448C290.68 190.408 292.6 191.272 294.904 192.04C297.208 192.808 299.704 193.608 302.392 194.44C305.144 195.272 307.672 196.392 309.976 197.8C312.28 199.208 314.2 201.064 315.736 203.368C317.272 205.608 318.04 208.552 318.04 212.2C318.04 214.376 317.496 216.488 316.408 218.536C315.384 220.584 313.912 222.44 311.992 224.104C310.072 225.704 307.736 227.016 304.984 228.04C302.296 229 299.288 229.48 295.96 229.48C292.568 229.48 289.528 229 286.84 228.04C284.216 227.08 281.976 225.736 280.12 224.008C278.264 222.216 276.824 220.136 275.8 217.768C274.84 215.336 274.36 212.68 274.36 209.8H285.88C285.88 212.488 286.776 214.696 288.568 216.424C290.36 218.088 292.824 218.92 295.96 218.92C299.352 218.92 301.88 218.216 303.544 216.808C305.208 215.336 306.04 213.64 306.04 211.72C306.04 209.864 305.272 208.424 303.736 207.4C302.2 206.376 300.28 205.48 297.976 204.712C295.672 203.88 293.144 203.08 290.392 202.312C287.704 201.544 285.208 200.488 282.904 199.144C280.6 197.8 278.68 196.072 277.144 193.96C275.608 191.784 274.84 188.936 274.84 185.416ZM348.715 184.36C351.467 184.36 354.091 184.936 356.587 186.088C359.083 187.176 361.259 188.744 363.115 190.792C365.035 192.776 366.539 195.144 367.627 197.896C368.779 200.648 369.355 203.656 369.355 206.92C369.355 210.184 368.779 213.192 367.627 215.944C366.539 218.696 365.035 221.096 363.115 223.144C361.259 225.128 359.083 226.696 356.587 227.848C354.091 228.936 351.467 229.48 348.715 229.48C346.859 229.48 345.227 229.256 343.819 228.808C342.475 228.36 341.291 227.88 340.267 227.368C339.115 226.728 338.091 225.992 337.195 225.16V244.36H326.155V184.84H334.315L336.235 189.16C337.195 188.264 338.315 187.464 339.595 186.76C340.683 186.184 341.995 185.64 343.531 185.128C345.067 184.616 346.795 184.36 348.715 184.36ZM336.235 206.92C336.235 210.568 337.291 213.48 339.403 215.656C341.515 217.832 344.139 218.92 347.275 218.92C350.411 218.92 353.035 217.832 355.147 215.656C357.259 213.48 358.315 210.568 358.315 206.92C358.315 203.272 357.259 200.36 355.147 198.184C353.035 196.008 350.411 194.92 347.275 194.92C344.139 194.92 341.515 196.008 339.403 198.184C337.291 200.36 336.235 203.272 336.235 206.92ZM386.17 206.92C386.17 210.568 387.226 213.48 389.338 215.656C391.45 217.832 394.074 218.92 397.21 218.92C400.346 218.92 402.97 217.832 405.082 215.656C407.194 213.48 408.25 210.568 408.25 206.92C408.25 203.272 407.194 200.36 405.082 198.184C402.97 196.008 400.346 194.92 397.21 194.92C394.074 194.92 391.45 196.008 389.338 198.184C387.226 200.36 386.17 203.272 386.17 206.92ZM419.29 206.92C419.29 210.056 418.682 213 417.466 215.752C416.314 218.44 414.714 220.808 412.666 222.856C410.682 224.904 408.346 226.536 405.658 227.752C403.034 228.904 400.218 229.48 397.21 229.48C394.202 229.48 391.354 228.904 388.666 227.752C386.042 226.536 383.706 224.904 381.658 222.856C379.674 220.808 378.074 218.44 376.858 215.752C375.706 213 375.13 210.056 375.13 206.92C375.13 203.784 375.706 200.872 376.858 198.184C378.074 195.432 379.674 193.032 381.658 190.984C383.706 188.936 386.042 187.336 388.666 186.184C391.354 184.968 394.202 184.36 397.21 184.36C400.218 184.36 403.034 184.968 405.658 186.184C408.346 187.336 410.682 188.936 412.666 190.984C414.714 193.032 416.314 195.432 417.466 198.184C418.682 200.872 419.29 203.784 419.29 206.92ZM432.205 174.28H441.805V184.84H451.405V194.92H441.805V213.16C441.805 215.08 442.349 216.616 443.437 217.768C444.589 218.856 446.125 219.4 448.045 219.4C448.557 219.4 448.973 219.4 449.293 219.4C449.613 219.336 449.901 219.272 450.157 219.208C450.413 219.144 450.669 219.048 450.925 218.92V228.52C450.477 228.712 449.965 228.872 449.389 229C448.301 229.32 447.053 229.48 445.645 229.48C443.469 229.48 441.453 229.128 439.597 228.424C437.805 227.656 436.237 226.568 434.893 225.16C433.613 223.752 432.589 222.088 431.821 220.168C431.117 218.248 430.765 216.072 430.765 213.64V194.92H424.045V185.8H426.925C430.445 185.8 432.205 184.04 432.205 180.52V174.28ZM471.539 229H460.499V184.84H471.539V229ZM466.259 179.08C464.595 179.08 463.123 178.472 461.843 177.256C460.627 175.976 460.019 174.504 460.019 172.84C460.019 171.176 460.627 169.736 461.843 168.52C463.123 167.24 464.595 166.6 466.259 166.6C467.923 166.6 469.363 167.24 470.579 168.52C471.859 169.736 472.499 171.176 472.499 172.84C472.499 174.504 471.859 175.976 470.579 177.256C469.363 178.472 467.923 179.08 466.259 179.08ZM483.981 195.88H478.701V185.8H483.981V183.88C483.981 181.512 484.333 179.368 485.037 177.448C485.805 175.464 486.829 173.768 488.109 172.36C489.453 170.952 491.021 169.896 492.813 169.192C494.669 168.424 496.685 168.04 498.861 168.04C499.565 168.04 500.237 168.104 500.877 168.232C501.517 168.296 502.093 168.392 502.605 168.52C503.181 168.712 503.693 168.872 504.141 169V178.6C503.885 178.536 503.629 178.472 503.373 178.408C503.117 178.344 502.829 178.28 502.509 178.216C502.189 178.152 501.773 178.12 501.261 178.12C499.341 178.12 497.805 178.696 496.653 179.848C495.565 180.936 495.021 182.44 495.021 184.36V185.8H504.141V195.88H495.021V229H483.981V195.88ZM506.511 184.84H518.031L529.071 213.64L539.151 184.84H550.671C547.535 192.904 544.687 200.2 542.127 206.728C541.039 209.544 539.951 212.296 538.863 214.984C537.839 217.672 536.911 220.136 536.079 222.376C535.247 224.552 534.543 226.376 533.967 227.848C533.391 229.32 533.039 230.184 532.911 230.44C531.823 233.064 530.735 235.272 529.647 237.064C528.623 238.92 527.503 240.424 526.287 241.576C525.071 242.728 523.759 243.56 522.351 244.072C520.943 244.584 519.343 244.84 517.551 244.84C517.039 244.84 516.527 244.808 516.015 244.744C515.567 244.744 515.183 244.712 514.863 244.648C514.415 244.584 514.031 244.488 513.711 244.36V235.24C516.143 235.24 517.999 234.696 519.279 233.608C520.623 232.52 521.647 231.144 522.351 229.48L523.311 227.08L506.511 184.84Z" fill="#1DB954"/>
<path d="M552.565 168.52H599.605V179.56H581.845V229H570.325V179.56H552.565V168.52ZM612.014 206.92C612.014 210.568 613.07 213.48 615.182 215.656C617.294 217.832 619.918 218.92 623.054 218.92C626.19 218.92 628.814 217.832 630.926 215.656C633.038 213.48 634.094 210.568 634.094 206.92C634.094 203.272 633.038 200.36 630.926 198.184C628.814 196.008 626.19 194.92 623.054 194.92C619.918 194.92 617.294 196.008 615.182 198.184C613.07 200.36 612.014 203.272 612.014 206.92ZM645.134 206.92C645.134 210.056 644.526 213 643.31 215.752C642.158 218.44 640.558 220.808 638.51 222.856C636.526 224.904 634.19 226.536 631.502 227.752C628.878 228.904 626.062 229.48 623.054 229.48C620.046 229.48 617.198 228.904 614.51 227.752C611.886 226.536 609.55 224.904 607.502 222.856C605.518 220.808 603.918 218.44 602.702 215.752C601.55 213 600.974 210.056 600.974 206.92C600.974 203.784 601.55 200.872 602.702 198.184C603.918 195.432 605.518 193.032 607.502 190.984C609.55 188.936 611.886 187.336 614.51 186.184C617.198 184.968 620.046 184.36 623.054 184.36C626.062 184.36 628.878 184.968 631.502 186.184C634.19 187.336 636.526 188.936 638.51 190.984C640.558 193.032 642.158 195.432 643.31 198.184C644.526 200.872 645.134 203.784 645.134 206.92ZM759.34 185.416C759.34 183.112 759.82 180.904 760.78 178.792C761.804 176.68 763.212 174.856 765.004 173.32C766.86 171.72 769.068 170.44 771.628 169.48C774.252 168.52 777.196 168.04 780.46 168.04C783.468 168.04 786.188 168.52 788.62 169.48C791.116 170.44 793.26 171.784 795.052 173.512C796.844 175.24 798.22 177.288 799.18 179.656C800.14 181.96 800.62 184.488 800.62 187.24H789.58C789.58 184.552 788.78 182.44 787.18 180.904C785.58 179.368 783.34 178.6 780.46 178.6C777.58 178.6 775.34 179.304 773.74 180.712C772.14 182.12 771.34 183.656 771.34 185.32C771.34 187.112 772.108 188.488 773.644 189.448C775.18 190.408 777.1 191.272 779.404 192.04C781.708 192.808 784.204 193.608 786.892 194.44C789.644 195.272 792.172 196.392 794.476 197.8C796.78 199.208 798.7 201.064 800.236 203.368C801.772 205.608 802.54 208.552 802.54 212.2C802.54 214.376 801.996 216.488 800.908 218.536C799.884 220.584 798.412 222.44 796.492 224.104C794.572 225.704 792.236 227.016 789.484 228.04C786.796 229 783.788 229.48 780.46 229.48C777.068 229.48 774.028 229 771.34 228.04C768.716 227.08 766.476 225.736 764.62 224.008C762.764 222.216 761.324 220.136 760.3 217.768C759.34 215.336 758.86 212.68 758.86 209.8H770.38C770.38 212.488 771.276 214.696 773.068 216.424C774.86 218.088 777.324 218.92 780.46 218.92C783.852 218.92 786.38 218.216 788.044 216.808C789.708 215.336 790.54 213.64 790.54 211.72C790.54 209.864 789.772 208.424 788.236 207.4C786.7 206.376 784.78 205.48 782.476 204.712C780.172 203.88 777.644 203.08 774.892 202.312C772.204 201.544 769.708 200.488 767.404 199.144C765.1 197.8 763.18 196.072 761.644 193.96C760.108 191.784 759.34 188.936 759.34 185.416ZM815.455 174.28H825.055V184.84H834.655V194.92H825.055V213.16C825.055 215.08 825.599 216.616 826.687 217.768C827.839 218.856 829.375 219.4 831.295 219.4C831.807 219.4 832.223 219.4 832.543 219.4C832.863 219.336 833.151 219.272 833.407 219.208C833.663 219.144 833.919 219.048 834.175 218.92V228.52C833.727 228.712 833.215 228.872 832.639 229C831.551 229.32 830.303 229.48 828.895 229.48C826.719 229.48 824.703 229.128 822.847 228.424C821.055 227.656 819.487 226.568 818.143 225.16C816.863 223.752 815.839 222.088 815.071 220.168C814.367 218.248 814.015 216.072 814.015 213.64V194.92H807.295V185.8H810.175C813.695 185.8 815.455 184.04 815.455 180.52V174.28ZM861.051 184.36C863.547 184.36 865.851 184.808 867.963 185.704C870.075 186.536 871.899 187.72 873.435 189.256C874.971 190.792 876.155 192.616 876.987 194.728C877.883 196.84 878.331 199.144 878.331 201.64V229H870.171L868.251 224.68C867.227 225.576 866.107 226.376 864.891 227.08C863.803 227.72 862.491 228.296 860.955 228.808C859.419 229.256 857.691 229.48 855.771 229.48C850.971 229.48 847.291 228.328 844.731 226.024C842.171 223.656 840.891 220.648 840.891 217C840.891 214.824 841.307 212.84 842.139 211.048C843.035 209.192 844.507 207.624 846.555 206.344C848.603 205 851.291 203.976 854.619 203.272C858.011 202.504 862.235 202.12 867.291 202.12C867.291 199.688 866.619 197.8 865.275 196.456C863.995 195.112 862.267 194.44 860.091 194.44C858.619 194.44 857.435 194.696 856.539 195.208C855.707 195.72 855.035 196.264 854.523 196.84C853.947 197.544 853.563 198.344 853.371 199.24H842.331C842.587 197.192 843.163 195.272 844.059 193.48C845.019 191.688 846.299 190.12 847.899 188.776C849.499 187.432 851.387 186.376 853.563 185.608C855.803 184.776 858.299 184.36 861.051 184.36ZM857.691 220.84C860.571 220.84 862.875 220.008 864.603 218.344C866.395 216.616 867.291 214.408 867.291 211.72V209.8C864.027 209.8 861.403 209.96 859.419 210.28C857.435 210.536 855.867 210.952 854.715 211.528C853.627 212.04 852.891 212.68 852.507 213.448C852.123 214.216 851.931 215.08 851.931 216.04C851.931 217.256 852.475 218.376 853.563 219.4C854.651 220.36 856.027 220.84 857.691 220.84ZM892.236 174.28H901.836V184.84H911.436V194.92H901.836V213.16C901.836 215.08 902.38 216.616 903.468 217.768C904.62 218.856 906.156 219.4 908.076 219.4C908.588 219.4 909.004 219.4 909.324 219.4C909.644 219.336 909.932 219.272 910.188 219.208C910.444 219.144 910.7 219.048 910.956 218.92V228.52C910.508 228.712 909.996 228.872 909.42 229C908.332 229.32 907.084 229.48 905.676 229.48C903.5 229.48 901.484 229.128 899.628 228.424C897.836 227.656 896.268 226.568 894.924 225.16C893.644 223.752 892.62 222.088 891.852 220.168C891.148 218.248 890.796 216.072 890.796 213.64V194.92H884.076V185.8H886.956C890.476 185.8 892.236 184.04 892.236 180.52V174.28ZM937.821 229.48C935.197 229.48 932.797 229.064 930.621 228.232C928.445 227.336 926.557 226.088 924.957 224.488C923.421 222.824 922.205 220.84 921.309 218.536C920.477 216.232 920.061 213.64 920.061 210.76V184.84H931.101V209.32C931.101 212.2 931.933 214.536 933.597 216.328C935.325 218.056 937.533 218.92 940.221 218.92C942.909 218.92 945.085 218.056 946.749 216.328C948.477 214.536 949.341 212.2 949.341 209.32V184.84H960.381V229H952.221L950.301 224.68C949.213 225.576 948.029 226.376 946.749 227.08C945.661 227.72 944.349 228.296 942.813 228.808C941.277 229.256 939.613 229.48 937.821 229.48ZM979.128 215.08C979.384 216.552 980.088 217.8 981.24 218.824C982.392 219.848 983.928 220.36 985.848 220.36C987.768 220.36 989.272 219.88 990.359 218.92C991.512 217.896 992.088 216.776 992.088 215.56C992.088 214.536 991.512 213.736 990.359 213.16C989.272 212.584 987.896 212.072 986.232 211.624C984.568 211.112 982.744 210.6 980.76 210.088C978.84 209.576 977.048 208.84 975.384 207.88C973.72 206.856 972.312 205.576 971.16 204.04C970.072 202.44 969.528 200.36 969.528 197.8C969.528 196.008 969.88 194.312 970.584 192.712C971.352 191.048 972.44 189.608 973.848 188.392C975.256 187.176 976.92 186.216 978.84 185.512C980.76 184.744 982.936 184.36 985.368 184.36C990.68 184.36 994.744 185.64 997.56 188.2C1000.44 190.76 1002.14 193.96 1002.65 197.8H992.088C991.832 196.84 991.128 195.88 989.976 194.92C988.888 193.96 987.512 193.48 985.848 193.48C984.184 193.48 982.872 193.896 981.912 194.728C981.016 195.56 980.568 196.584 980.568 197.8C980.568 198.824 981.112 199.624 982.2 200.2C983.352 200.776 984.76 201.32 986.424 201.832C988.088 202.28 989.88 202.792 991.8 203.368C993.784 203.88 995.608 204.648 997.272 205.672C998.936 206.696 1000.31 208.04 1001.4 209.704C1002.55 211.304 1003.13 213.416 1003.13 216.04C1003.13 217.832 1002.74 219.56 1001.98 221.224C1001.21 222.824 1000.12 224.232 998.712 225.448C997.304 226.664 995.576 227.656 993.528 228.424C991.544 229.128 989.304 229.48 986.808 229.48C981.048 229.48 976.664 228.168 973.656 225.544C970.712 222.92 969.016 219.432 968.568 215.08H979.128Z" fill="black"/>
<path d="M670.049 229L648.449 168.52H660.449L675.809 212.68L691.169 168.52H703.169L681.569 229H670.049ZM743.016 229L721.416 201.64V229H709.896V168.52H721.416V195.4L741.576 168.52H755.016L732.456 198.28L756.456 229H743.016Z" fill="#3F8AE0"/>
</svg>